# xmcd CD database file
#
# Track frame offsets:
#	150
#	10093
#	24237
#	34933
#	44485
#	56699
#	68466
#	80811
#	91660
#	105114
#	115579
#	128873
#
# Disc length: 1831 seconds
#
# Revision: 0
# Processed by: cddbd v1.5.2PL0 Copyright (c) Steve Scherf et al.
# Submitted via: CDex 1.51
#
DISCID=8707250c
DTITLE=Ray Barretto - Mysterious Instinct
DYEAR=1963
DGENRE=Jazz
TTITLE0=Sing A'Man
TTITLE1=Wide Dark Troubled Wa
TTITLE2=Papa Zimbi
TTITLE3=Go Round The Wall
TTITLE4=Way Yonder Far - Gambler
TTITLE5=Gambler
TTITLE6=Igama La Batwana
TTITLE7=Mysterious Instict
TTITLE8=Water Bird
TTITLE9=Sorrow Valley
TTITLE10=Or Three Farm
TTITLE11=Gonna Leave You Baby
EXTD=YEAR: 1963
EXTT0=
EXTT1=
EXTT2=
EXTT3=
EXTT4=
EXTT5=
EXTT6=
EXTT7=
EXTT8=
EXTT9=
EXTT10=
EXTT11=
PLAYORDER=
